<?xml version="1.0" standalone="no"?>
<!DOCTYPE svg PUBLIC "-//W3C//DTD SVG 20010904//EN"
 "http://www.w3.org/TR/2001/REC-SVG-20010904/DTD/svg10.dtd">
<svg version="1.0" xmlns="http://www.w3.org/2000/svg"
 width="48.000000pt" height="48.000000pt" viewBox="0 0 48.000000 48.000000"
 preserveAspectRatio="xMidYMid meet">

<g transform="translate(0.000000,48.000000) scale(0.100000,-0.100000)"
fill="#000000" stroke="none">
<path d="M224 310 c-39 -16 -41 -80 -3 -101 25 -13 67 -1 80 22 13 24 1 67
-21 79 -22 12 -28 12 -56 0z"/>
<path d="M214 178 c-18 -8 -44 -46 -44 -63 0 -3 36 -5 80 -5 44 0 80 2 80 5 0
18 -26 55 -47 64 -29 13 -41 13 -69 -1z"/>
</g>
</svg>
