<svg width="50" height="50" viewBox="0 0 50 50" fill="none" xmlns="http://www.w3.org/2000/svg">
<path d="M19.6643 9.57466C16.9541 12.8269 17.8575 17.7051 22.0131 20.2346C28.1561 24.2095 35.2025 15.3563 30.5049 9.57466C27.6141 6.14178 22.5551 6.14178 19.6643 9.57466Z" fill="black"/>
<path d="M9.54635 20.4153C8.82364 22.0414 9.18499 24.2095 10.2691 25.2936C12.9792 28.0038 18.2189 25.4743 17.4962 21.8607C16.7734 17.7051 10.9918 16.6211 9.54635 20.4153Z" fill="black"/>
<path d="M33.0344 20.4153C32.3117 22.0414 32.6731 24.2095 33.7571 25.2936C36.4673 28.0038 41.707 25.4743 40.9842 21.8607C40.2615 17.7051 34.4798 16.6211 33.0344 20.4153Z" fill="black"/>
<path d="M19.1223 26.3777C17.3155 28.1844 16.0507 32.7014 16.0507 36.3149V43H25.0846H34.1185V36.1343C34.1185 24.9322 25.446 19.3312 19.1223 26.3777Z" fill="black"/>
<path d="M9.18499 30.7139C5.9328 33.9661 6.47483 43 9.72702 43C11.7145 43 12.4372 41.0125 12.4372 35.7729C12.4372 27.8231 12.2565 27.6424 9.18499 30.7139Z" fill="black"/>
<path d="M37.732 35.5922C37.732 41.0125 38.4548 43 40.4422 43C42.249 43 43.1524 41.1932 43.1524 37.7604C43.1524 34.8695 41.8876 31.6173 40.4422 30.3526C38.0934 28.3651 37.732 29.0878 37.732 35.5922Z" fill="black"/>
</svg>
